<svg width="14" height="13" viewBox="0 0 14 13" fill="none" xmlns="http://www.w3.org/2000/svg">
<path d="M12.0243 12.1596C10.5819 12.1596 9.49411 11.6217 8.76106 10.5457L6.96983 7.88549C6.8516 7.69632 6.73928 7.5367 6.63287 7.40665C6.53828 7.27659 6.46143 7.17018 6.40232 7.08742C6.17767 6.80366 5.97077 6.58493 5.78159 6.43123C5.61607 6.45487 5.45054 6.47261 5.28501 6.48443C5.13131 6.49625 4.97761 6.50217 4.82391 6.50217L5.01899 6.1652C5.95303 6.1652 6.71563 5.92282 7.3068 5.43807C7.95708 4.88237 8.28222 4.13751 8.28222 3.20347C8.28222 2.54136 8.05758 1.97384 7.60829 1.50091C7.14718 1.01616 6.52646 0.773778 5.74612 0.773778C5.16678 0.773778 4.79435 0.791513 4.62882 0.826982C4.29777 0.874276 4.12042 1.03389 4.09677 1.30583C4.04948 1.69599 4.01401 2.18666 3.99036 2.77783C3.97854 3.36899 3.97263 4.06065 3.97263 4.85282V7.40665C3.97263 9.48755 4.03174 10.7053 4.14998 11.06C4.32733 11.4502 5.00126 11.6512 6.17176 11.663L5.95894 12.0532C5.61607 11.9941 5.24954 11.9527 4.85938 11.9291C4.48103 11.8936 4.07904 11.8759 3.6534 11.8759C3.34599 11.8759 2.91444 11.8936 2.35875 11.9291C1.81488 11.9527 1.14686 11.9941 0.354699 12.0532L0.496579 11.6985C0.543872 11.7103 0.638458 11.7162 0.780338 11.7162C1.14686 11.7162 1.48382 11.6571 1.79123 11.5389C2.1814 11.3734 2.41195 11.1428 2.48289 10.8472C2.62477 10.2915 2.69571 9.00279 2.69571 6.98101C2.69571 3.09114 2.56566 1.01024 2.30554 0.738308C2.10455 0.549135 1.81488 0.454549 1.43653 0.454549C1.22371 0.454549 1.0168 0.478196 0.815808 0.525489L0.975422 0.170789C1.36559 0.229906 2.15775 0.283111 3.35191 0.330404C3.36373 0.330404 3.48787 0.324492 3.72434 0.312669C3.97263 0.300846 4.33324 0.277199 4.80617 0.241729C5.44463 0.20626 5.91756 0.188525 6.22497 0.188525C7.25359 0.188525 8.03393 0.348139 8.56598 0.667368C9.26355 1.09301 9.61234 1.83196 9.61234 2.88424C9.61234 3.61728 9.34041 4.30303 8.79653 4.94149C8.31178 5.49719 7.82111 5.82824 7.32453 5.93465C8.05758 7.27068 8.91477 8.48257 9.8961 9.57031C11.2321 11.0246 12.4322 11.7517 13.4963 11.7517L13.3189 12.0709C13.0588 12.0946 12.8224 12.1123 12.6095 12.1241C12.3967 12.1478 12.2016 12.1596 12.0243 12.1596Z" fill="white"/>
</svg>
